<?xml version="1.0" encoding="UTF-8"?>
<svg width="171px" height="76px" viewBox="0 0 171 76" version="1.1" xmlns="http://www.w3.org/2000/svg" xmlns:xlink="http://www.w3.org/1999/xlink">
    <title>Group 6</title>
    <g id="Symbols" stroke="none" stroke-width="1" fill="none" fill-rule="evenodd">
        <g id="Navigation-Menu" transform="translate(-200.000000, -10.000000)" fill="#1F2A44">
            <g id="Group-6" transform="translate(200.000000, 10.500000)">
                <polygon id="Fill-1" points="9.4087236 37.2196843 9.4087236 47.9795506 3.90143519 37.2196843 0.122697434 37.2196843 0.122697434 51.3959571 2.96153117 51.3959571 2.96153117 40.6351102 8.47053563 51.3959571 12.2495185 51.3959571 12.2495185 37.2196843"></polygon>
                <polygon id="Path" points="9.28627132 37.097232 9.28627132 47.4709875 4.01064939 37.1639128 3.97632843 37.097232 4.45052658e-13 37.097232 4.45052658e-13 51.5186545 3.08398345 51.5186545 3.08398345 41.1434281 8.39588754 51.5186545 12.3719708 51.5186545 12.3719708 37.097232"></polygon>
                <polygon id="Path" points="9.53142104 37.3423818 12.1270662 37.3423818 12.1270662 51.2735048 8.54567402 51.2735048 2.83883373 40.1267923 2.83883373 51.2735048 0.245149718 51.2735048 0.245149718 37.3423818 3.82654195 37.3423818 9.53142104 48.4881137"></polygon>
                <path d="M16.2560984,45.0976931 L21.3142726,45.0976931 C21.2512691,43.368407 19.9715876,42.6854199 18.7735409,42.6854199 C17.6237887,42.6854199 16.3394493,43.3259961 16.2560984,45.0976931 M13.5430265,46.165075 C13.5430265,42.9631745 15.6142965,40.699462 18.8404668,40.699462 C22.2554023,40.699462 24.2185613,43.1757193 24.0469565,46.9978486 L16.2560984,46.9978486 C16.3213083,48.5349373 17.3654009,49.5599083 18.860569,49.5599083 C20.2262981,49.5599083 21.0161705,48.8769211 21.3142726,48.0215938 L23.8768226,48.3635776 C23.3850522,49.8163349 21.8685561,51.6517708 18.9034702,51.6517708 C15.3573796,51.6517708 13.5430265,49.2186599 13.5430265,46.165075" id="Fill-3"></path>
                <path d="M16.3869348,44.9751182 L21.18476,44.9751182 C21.0651269,43.3787033 19.8231984,42.8079947 18.7734673,42.8079947 C17.6962795,42.8079947 16.5202963,43.3804193 16.3869348,44.9751182 L16.3869348,44.9751182 Z M21.4414317,45.220268 L16.1275664,45.220268 L16.1336952,45.0920546 C16.2217039,43.2252395 17.6107222,42.562845 18.7734673,42.562845 C19.9595017,42.562845 21.3688674,43.2254847 21.4367739,45.0932804 L21.4414317,45.220268 Z M18.8403932,40.8220369 C15.7451329,40.8220369 13.6655278,42.9693032 13.6655278,46.165075 C13.6655278,49.423605 15.7215985,51.5291959 18.9033967,51.5291959 C21.6010242,51.5291959 23.1412999,49.9722501 23.7102924,48.4648245 L21.3950984,48.1559358 C21.0126649,49.1274642 20.0948243,49.6824831 18.8604955,49.6824831 C17.2974209,49.6824831 16.2016017,48.6057856 16.1336952,47.0029967 L16.1283019,46.8752737 L23.9292111,46.8752737 C23.9954015,44.9094181 23.4901479,43.306139 22.4646866,42.2338541 C21.5816574,41.3101299 20.328452,40.8220369 18.8403932,40.8220369 L18.8403932,40.8220369 Z M18.9033967,51.7743457 C15.5725475,51.7743457 13.4203781,49.5724109 13.4203781,46.165075 C13.4203781,42.8227037 15.5985333,40.5768871 18.8403932,40.5768871 C20.3968488,40.5768871 21.7115867,41.0912113 22.6419299,42.0642105 C23.7350525,43.2075888 24.263105,44.9155469 24.1694578,47.0032418 L24.1640645,47.1204234 L16.3864445,47.1204234 C16.4997037,48.5116481 17.4798123,49.4373334 18.8604955,49.4373334 C20.0234858,49.4373334 20.8758713,48.9065843 21.1984884,47.9811441 L21.2315836,47.8867614 L24.0407542,48.2618405 L23.99295,48.4028016 C23.441118,50.0325569 21.8145496,51.7743457 18.9033967,51.7743457 L18.9033967,51.7743457 Z" id="Fill-5"></path>
                <polygon id="Fill-7" points="30.0700889 40.9345606 32.8667569 40.9345606 34.5524064 48.0868036 35.7909027 40.9345606 38.7591755 40.9345606 36.1537243 51.3960796 33.4207953 51.3960796 31.4779838 44.1580342 29.5158054 51.3960796 26.7814055 51.3960796 24.1982629 40.9345606 27.1665357 40.9345606 28.4057675 48.1078865"></polygon>
                <path d="M33.5147366,51.2734803 L36.058165,51.2734803 L38.6023287,41.0571109 L35.8941598,41.0571109 L34.5705965,48.6991631 L32.7694815,41.0571109 L30.1674624,41.0571109 L28.3881657,48.7258844 L27.0633767,41.0571109 L24.3549626,41.0571109 L26.8775532,51.2734803 L29.4222072,51.2734803 L31.4785231,43.6875674 L33.5147366,51.2734803 Z M36.2496269,51.51863 L33.3267068,51.51863 L31.4772973,44.6289423 L29.6095016,51.51863 L26.6856009,51.51863 L24.0416612,40.8119612 L27.2697927,40.8119612 L28.4234673,47.4895944 L29.9725684,40.8119612 L32.9636401,40.8119612 L34.5340692,47.4743951 L35.6877437,40.8119612 L38.9158752,40.8119612 L36.2496269,51.51863 Z" id="Fill-9"></path>
                <polygon id="Fill-11" points="54.0462707 39.4399563 46.2963526 48.9826542 54.2605315 48.9826542 54.2605315 51.395908 42.7713448 51.395908 42.7713448 49.1750967 50.5450424 39.6319085 43.3935348 39.6319085 43.3935348 37.2196353 54.0462707 37.2196353"></polygon>
                <path d="M42.8939932,51.2732351 L54.1377851,51.2732351 L54.1377851,49.1053762 L46.0387738,49.1053762 L53.9237694,39.3964667 L53.9237694,37.3421121 L43.5161832,37.3421121 L43.5161832,39.5094808 L50.8030134,39.5094808 L42.8939932,49.2186353 L42.8939932,51.2732351 Z M54.3829348,51.5183848 L42.6488435,51.5183848 L42.6488435,49.1316072 L42.6763003,49.0975314 L50.2869733,39.7546305 L43.2710335,39.7546305 L43.2710335,37.0969624 L54.1689191,37.0969624 L54.1689191,39.4834949 L54.1414623,39.5173255 L46.5538334,48.8602264 L54.3829348,48.8602264 L54.3829348,51.5183848 Z" id="Fill-13"></path>
                <path d="M57.2202976,45.0976931 L62.2806781,45.0976931 C62.2154683,43.368407 60.9360319,42.6854199 59.7384755,42.6854199 C58.5870073,42.6854199 57.3056097,43.3259961 57.2202976,45.0976931 M54.507716,46.165075 C54.507716,42.9631745 56.5799666,40.699462 59.8019693,40.699462 C63.2183758,40.699462 65.1837411,43.1757193 65.0111557,46.9978486 L57.2202976,46.9978486 C57.2833011,48.5349373 58.3303355,49.5599083 59.8232973,49.5599083 C61.1909876,49.5599083 61.98086,48.8769211 62.2806781,48.0215938 L64.8410217,48.3635776 C64.350232,49.8163349 62.8369228,51.6517708 59.8671791,51.6517708 C56.3223142,51.6517708 54.507716,49.2186599 54.507716,46.165075" id="Fill-15"></path>
                <path d="M57.3512321,44.9751182 L62.1510184,44.9751182 C62.0294241,43.3787033 60.7874957,42.8079947 59.7385,42.8079947 C58.6620476,42.8079947 57.4863096,43.3801742 57.3512321,44.9751182 L57.3512321,44.9751182 Z M62.4079353,45.220268 L57.0916185,45.220268 L57.0977473,45.0918095 C57.1877172,43.2249944 58.5764904,42.562845 59.7385,42.562845 C60.9237989,42.562845 62.3326744,43.2254847 62.4030323,45.0930352 L62.4079353,45.220268 Z M59.8019938,40.8220369 C56.7086947,40.8220369 54.6303154,42.9693032 54.6303154,46.165075 C54.6303154,49.423605 56.6858957,51.5291959 59.8672036,51.5291959 C62.566302,51.5291959 64.1065777,49.9722501 64.6745896,48.4648245 L62.3613569,48.1559358 C61.9772073,49.1274642 61.058141,49.6824831 59.8230767,49.6824831 C58.2587763,49.6824831 57.1634474,48.6055404 57.0977473,47.0027516 L57.0925991,46.8752737 L64.8932632,46.8752737 C64.9599439,44.9103987 64.4549355,43.307855 63.4297193,42.235325 C62.5459546,41.3106202 61.2915235,40.8220369 59.8019938,40.8220369 L59.8019938,40.8220369 Z M59.8672036,51.7743457 C56.5370899,51.7743457 54.3851656,49.5724109 54.3851656,46.165075 C54.3851656,42.8227037 56.5620951,40.5768871 59.8019938,40.5768871 C61.3601654,40.5768871 62.675884,41.0917015 63.6069626,42.0659265 C64.69984,43.2093048 65.2276474,44.9165275 65.1335099,47.0032418 L65.1283617,47.1204234 L57.3504966,47.1204234 C57.4615495,48.5118932 58.4411677,49.4373334 59.8230767,49.4373334 C60.9870475,49.4373334 61.8404137,48.9065843 62.1649919,47.9808989 L62.1980872,47.8867614 L65.0048063,48.2618405 L64.9570021,48.4028016 C64.4063958,50.0325569 62.7803177,51.7743457 59.8672036,51.7743457 L59.8672036,51.7743457 Z" id="Fill-17"></path>
                <path d="M72.7616866,46.5064459 L70.905658,46.7204616 C69.2611937,46.9124139 68.6220884,47.4034488 68.6220884,48.2148943 C68.6220884,48.9827032 69.2187828,49.6245052 70.2854293,49.6245052 C71.6111989,49.6245052 72.7616866,48.8331619 72.7616866,47.146777 L72.7616866,46.5064459 Z M66.2073637,44.1157459 C66.3799491,42.1300332 67.9158121,40.6351102 70.9274764,40.6351102 C74.0229819,40.6351102 75.4544111,41.8738517 75.4105293,44.6707649 C75.3892012,45.8244394 75.3470355,46.9548248 75.3470355,47.9366494 C75.3470355,49.0685056 75.4105293,50.2211996 75.5605609,51.3959571 L73.0418927,51.3959571 L72.9783989,50.2645911 C72.29247,51.2253329 71.2898077,51.6516482 69.6669165,51.6516482 C67.2548884,51.6516482 65.8467485,50.0084097 65.8467485,48.2362224 C65.8467485,47.2752355 66.2301626,46.5064459 66.8266119,46.0374745 C67.7238599,45.3324239 69.02585,45.0335864 70.7803865,44.8418794 L72.6989282,44.6281088 L72.6989282,44.2645518 C72.6989282,43.0263005 71.9730399,42.6208229 70.7977922,42.6208229 C69.6254862,42.6208229 68.8137955,43.1125933 68.7279931,44.2013031 L66.2073637,44.1157459 Z" id="Fill-19"></path>
                <path d="M72.6391117,46.6439995 L70.9196316,46.8420804 C68.9920193,47.0671279 68.7446633,47.6939757 68.7446633,48.2149188 C68.7446633,48.8554951 69.2212343,49.5019549 70.2854293,49.5019549 C71.4234143,49.5019549 72.6391117,48.883197 72.6391117,47.1468015 L72.6391117,46.6439995 Z M70.2854293,49.7471046 C69.2339821,49.7471046 68.4995136,49.1170698 68.4995136,48.2149188 C68.4995136,47.2902141 69.2371691,46.7918247 70.8914394,46.5986468 L72.8842614,46.3689415 L72.8842614,47.1468015 C72.8842614,48.7265463 71.8641934,49.7471046 70.2854293,49.7471046 L70.2854293,49.7471046 Z M70.7977922,42.4982726 C72.1784754,42.4982726 72.8215031,43.0596654 72.8215031,44.2645763 L72.8215031,44.7379604 L70.7941149,44.9637433 C68.8118343,45.1802105 67.6843908,45.5192525 66.9023632,46.1338429 C66.3007657,46.6069818 65.9693233,47.3534627 65.9693233,48.2362469 C65.9693233,49.8726212 67.239444,51.5290979 69.6669165,51.5290979 C71.2496031,51.5290979 72.2100997,51.1295038 72.878623,50.1932771 L73.0811166,49.9093937 L73.1576034,51.2734067 L75.421561,51.2734067 C75.288935,50.1886192 75.2244606,49.0954966 75.2244606,47.9366739 C75.2244606,47.3066391 75.2416211,46.6226714 75.2597622,45.898254 C75.2698133,45.4952279 75.2803548,45.0833763 75.2879544,44.668583 C75.3080567,43.3827728 75.0146125,42.4494878 74.3904613,41.8152855 C73.6900685,41.1036158 72.5572317,40.7577096 70.9274764,40.7577096 C68.2869688,40.7577096 66.5836685,41.9658074 66.3426863,43.9976082 L68.6179209,44.0748304 C68.749076,43.0569688 69.5183558,42.4982726 70.7977922,42.4982726 L70.7977922,42.4982726 Z M69.6669165,51.7742476 C67.0786258,51.7742476 65.7241736,49.9944606 65.7241736,48.2362469 C65.7241736,47.2767309 66.0889564,46.4616081 66.7508606,45.9411552 C67.5721122,45.295676 68.7355927,44.9421701 70.7671485,44.7200645 L72.5763534,44.5185514 L72.5763534,44.2645763 C72.5763534,43.1984202 72.0443785,42.7434223 70.7977922,42.7434223 C69.9620768,42.7434223 68.9459312,42.9981328 68.8503228,44.2108885 L68.8410071,44.3278249 L66.0740023,44.2336874 L66.0852791,44.1049838 C66.2806635,41.85549 68.090849,40.5125599 70.9274764,40.5125599 C72.6263639,40.5125599 73.8160755,40.8824908 74.5650079,41.6434355 C75.2376987,42.3266678 75.5544322,43.3175629 75.5331041,44.6727506 C75.5252593,45.0885245 75.514963,45.5008663 75.5049119,45.9043828 C75.4867708,46.6270841 75.4696103,47.3095809 75.4696103,47.9366739 C75.4696103,49.1342303 75.5392329,50.2606932 75.6821552,51.3805372 L75.6995608,51.5185564 L72.9259369,51.5185564 L72.8739651,50.5953226 C72.1701403,51.4082391 71.1647813,51.7742476 69.6669165,51.7742476 L69.6669165,51.7742476 Z" id="Fill-21"></path>
                <polygon id="Fill-23" points="77.332454 51.3961287 80.0661185 51.3961287 80.0661185 37.2198559 77.332454 37.2198559"></polygon>
                <path d="M77.4550289,51.2735538 L79.9435437,51.2735538 L79.9435437,37.3424308 L77.4550289,37.3424308 L77.4550289,51.2735538 Z M77.2098792,51.5187035 L80.1886934,51.5187035 L80.1886934,37.0972811 L77.2098792,37.0972811 L77.2098792,51.5187035 Z" id="Fill-25"></path>
                <path d="M88.4540142,46.5064459 L86.5972502,46.7204616 C84.9559729,46.9124139 84.3117194,47.4034488 84.3117194,48.2148943 C84.3117194,48.9827032 84.9118459,49.6245052 85.9792278,49.6245052 C87.304262,49.6245052 88.4540142,48.8331619 88.4540142,47.146777 L88.4540142,46.5064459 Z M81.9004268,44.1157459 C82.0722767,42.1300332 83.6098558,40.6351102 86.6190686,40.6351102 C89.7170255,40.6351102 91.1460032,41.8738517 91.1021214,44.6707649 C91.081774,45.8244394 91.0400986,46.9548248 91.0400986,47.9366494 C91.0400986,49.0685056 91.1021214,50.2211996 91.2528885,51.3959571 L88.7359364,51.3959571 L88.6707265,50.2645911 C87.9855331,51.2253329 86.9840965,51.6516482 85.360715,51.6516482 C82.9474612,51.6516482 81.5371149,50.0084097 81.5371149,48.2362224 C81.5371149,47.2752355 81.9239612,46.5064459 82.519675,46.0374745 C83.4183938,45.3324239 84.7189131,45.0335864 86.4690369,44.8418794 L88.3895398,44.6281088 L88.3895398,44.2645518 C88.3895398,43.0263005 87.6675739,42.6208229 86.4893844,42.6208229 C85.3170784,42.6208229 84.5053877,43.1125933 84.4198304,44.2013031 L81.9004268,44.1157459 Z" id="Fill-26"></path>
                <path d="M88.3314393,46.6439995 L86.6112238,46.8420804 C84.6816503,47.0678633 84.4342943,47.694466 84.4342943,48.2149188 C84.4342943,48.8554951 84.9120911,49.5019549 85.9792278,49.5019549 C87.1162322,49.5019549 88.3314393,48.883197 88.3314393,47.1468015 L88.3314393,46.6439995 Z M85.9792278,49.7471046 C84.9253292,49.7471046 84.1891445,49.1170698 84.1891445,48.2149188 C84.1891445,47.2907044 84.9275355,46.792315 86.5830315,46.5986468 L88.5765891,46.3689415 L88.5765891,47.1468015 C88.5765891,48.7265463 87.5570114,49.7471046 85.9792278,49.7471046 L85.9792278,49.7471046 Z M86.4893844,42.4982726 C87.8693321,42.4982726 88.5121147,43.0596654 88.5121147,44.2645763 L88.5121147,44.7379604 L86.4825202,44.9637433 C84.5048974,45.1804556 83.3786796,45.5194977 82.5954262,46.134088 C81.9921128,46.608943 81.6596898,47.3554239 81.6596898,48.2362469 C81.6596898,49.8726212 82.9310362,51.5290979 85.360715,51.5290979 C86.9429113,51.5290979 87.9031628,51.129749 88.5709506,50.1932771 L88.7731991,49.909884 L88.851647,51.2734067 L91.1138886,51.2734067 C90.9819981,50.1979349 90.9175237,49.1048123 90.9175237,47.9366739 C90.9175237,47.3115421 90.9341939,46.6332129 90.9518447,45.9149242 C90.9618958,45.5065048 90.9719469,45.0892599 90.9795466,44.668583 C90.9996489,43.3820373 90.7064498,42.4485072 90.0825438,41.8147952 C89.3823962,41.1033707 88.2495593,40.7577096 86.6190686,40.7577096 C83.9788061,40.7577096 82.2759961,41.9658074 82.0355043,43.9976082 L84.3097582,44.0748304 C84.4406682,43.0569688 85.209948,42.4982726 86.4893844,42.4982726 L86.4893844,42.4982726 Z M85.360715,51.7742476 C82.7699728,51.7742476 81.41454,49.9944606 81.41454,48.2362469 C81.41454,47.2786921 81.7800583,46.4638144 82.4439237,45.9411552 C83.266401,45.2959212 84.4286558,44.9421701 86.4557988,44.7200645 L88.266965,44.5185514 L88.266965,44.2645763 C88.266965,43.1984202 87.7354804,42.7434223 86.4893844,42.7434223 C85.653669,42.7434223 84.6372782,42.9981328 84.541915,44.2108885 L84.5328445,44.3278249 L81.7670653,44.2336874 L81.7783422,44.105229 C81.9729911,41.85549 83.7826863,40.5125599 86.6190686,40.5125599 C88.3184464,40.5125599 89.5084031,40.8822456 90.2570904,41.6429452 C90.929536,42.3259323 91.2460243,43.3170726 91.2246963,44.6727506 C91.2170967,45.0941629 91.2068004,45.5121432 91.1967492,45.9208078 C91.1793436,46.6376256 91.1626734,47.3144839 91.1626734,47.9366739 C91.1626734,49.1442814 91.2320508,50.2707444 91.3744828,51.3805372 L91.3921336,51.5185564 L88.6202257,51.5185564 L88.5670282,50.5950775 C87.8634485,51.4079939 86.8585798,51.7742476 85.360715,51.7742476 L85.360715,51.7742476 Z" id="Fill-27"></path>
                <path d="M95.7367994,42.1301558 C96.3567831,41.1691689 97.5293342,40.6999523 98.8320598,40.6999523 C100.155623,40.6999523 101.138919,41.0833665 101.779985,41.9168755 C102.270039,42.5574517 102.526466,43.474802 102.526466,44.8841677 L102.526466,51.3958345 L99.793537,51.3958345 L99.793537,45.4815975 C99.793537,44.5843496 99.7089603,43.966082 99.4074262,43.5395215 C99.1326133,43.1553719 98.6609453,42.8987001 97.9379988,42.8987001 C96.1425222,42.8987001 95.7367994,44.3713145 95.7367994,46.05868 L95.7367994,51.3958345 L93.0031349,51.3958345 L93.0031349,40.9345606 L95.7367994,40.9345606 L95.7367994,42.1301558 Z" id="Fill-28"></path>
                <path d="M99.9160873,51.2733577 L102.403867,51.2733577 L102.403867,44.8842657 C102.403867,43.5535931 102.174652,42.6345268 101.682636,41.9914991 C101.077607,41.2048136 100.145302,40.8223801 98.8322804,40.8223801 C97.493763,40.8223801 96.4030919,41.3232209 95.839983,42.1966894 L95.6142001,42.5462729 L95.6142001,41.0569883 L93.1256853,41.0569883 L93.1256853,51.2733577 L95.6142001,51.2733577 L95.6142001,46.058778 C95.6142001,42.7762233 97.3633433,42.7762233 97.9382194,42.7762233 C98.6408185,42.7762233 99.1833348,43.0154894 99.5071776,43.468281 C99.79768,43.8793971 99.9160873,44.4626082 99.9160873,45.4816956 L99.9160873,51.2733577 Z M102.649016,51.5185074 L99.6709376,51.5185074 L99.6709376,45.4816956 C99.6709376,44.5177669 99.5655232,43.9754957 99.3073806,43.6102227 C99.0279099,43.2196992 98.5672736,43.021373 97.9382194,43.021373 C96.5004163,43.021373 95.8593498,43.9580901 95.8593498,46.058778 L95.8593498,51.5185074 L92.8805356,51.5185074 L92.8805356,40.8118386 L95.8593498,40.8118386 L95.8593498,41.7613035 C96.5077708,41.0042812 97.5685336,40.5772304 98.8322804,40.5772304 C100.226447,40.5772304 101.22249,40.9910431 101.877285,41.8422029 C102.403622,42.5303382 102.649016,43.4969635 102.649016,44.8842657 L102.649016,51.5185074 Z" id="Fill-29"></path>
                <path d="M111.40878,46.1648298 C111.40878,44.1158685 110.488978,42.7915697 108.974933,42.7915697 C107.48001,42.7915697 106.646501,44.2014257 106.646501,46.1859127 C106.646501,48.1718706 107.48001,49.5596631 108.974933,49.5596631 C110.488978,49.5596631 111.40878,48.2574278 111.40878,46.1648298 L111.40878,46.1648298 Z M114.032617,51.3958345 L111.40878,51.3958345 L111.386961,50.2857966 C110.701768,51.2467835 109.635121,51.6515257 108.439771,51.6515257 C105.79387,51.6515257 103.872632,49.6025643 103.872632,46.1648298 C103.872632,42.8131429 105.920368,40.6997072 108.612602,40.6997072 C109.870465,40.6997072 110.726038,41.2331529 111.301404,41.8950572 L111.301404,37.2195618 L114.032617,37.2195618 L114.032617,51.3958345 Z" id="Fill-30"></path>
                <path d="M108.975007,42.914071 C107.614426,42.914071 106.768904,44.1677667 106.768904,46.1860843 C106.768904,48.191409 107.614426,49.4370147 108.975007,49.4370147 C110.400552,49.4370147 111.286278,48.183319 111.286278,46.1647563 C111.286278,44.1596767 110.400552,42.914071 108.975007,42.914071 M108.975007,49.6821644 C107.463168,49.6821644 106.523755,48.3426664 106.523755,46.1860843 C106.523755,44.0167544 107.463168,42.6689213 108.975007,42.6689213 C110.55181,42.6689213 111.531428,44.0084193 111.531428,46.1647563 C111.531428,48.3343313 110.55181,49.6821644 108.975007,49.6821644 M108.61243,40.8222085 C105.893965,40.8222085 103.995281,43.0192402 103.995281,46.1647563 C103.995281,49.4232863 105.739766,51.5288772 108.439845,51.5288772 C109.689373,51.5288772 110.674139,51.0743697 111.287259,50.2146296 L111.502255,49.9130955 L111.528977,51.2731861 L113.909871,51.2731861 L113.909871,37.3420631 L111.424052,37.3420631 L111.424052,42.2227488 L111.208811,41.9753927 C110.54372,41.2102805 109.670251,40.8222085 108.61243,40.8222085 M108.439845,51.774027 C105.634842,51.774027 103.750131,49.5198753 103.750131,46.1647563 C103.750131,42.8748471 105.749572,40.5770587 108.61243,40.5770587 C109.633969,40.5770587 110.495916,40.916346 111.178903,41.5858498 L111.178903,37.0969134 L114.15502,37.0969134 L114.15502,51.5183358 L111.28873,51.5183358 L111.271079,50.6284423 C110.606723,51.3793359 109.63544,51.774027 108.439845,51.774027" id="Fill-31"></path>
                <path d="M3.02652036,58.7599849 L3.02652036,63.500445 L4.9916405,63.500445 C6.74127404,63.500445 8.12735054,63.1381137 8.12735054,61.2372228 C8.12735054,58.8886885 6.3343255,58.7599849 4.77811509,58.7599849 L3.02652036,58.7599849 Z M4.861466,56.4558227 C7.8111074,56.4558227 11.054193,56.8828735 11.054193,61.2176109 C11.054193,64.8867667 8.25703474,65.7842598 4.948249,65.7842598 L3.02652036,65.7842598 L3.02652036,70.6301343 L0.122721949,70.6301343 L0.122721949,56.4558227 L4.861466,56.4558227 Z" id="Fill-32"></path>
                <path d="M3.14909522,63.3779682 L4.9916405,63.3779682 C6.55643115,63.3779682 8.00477568,63.1185998 8.00477568,61.2373209 C8.00477568,59.0643138 6.41081222,58.8826579 4.77811509,58.8826579 L3.14909522,58.8826579 L3.14909522,63.3779682 Z M4.9916405,63.623118 L2.9039455,63.623118 L2.9039455,58.6375081 L4.77811509,58.6375081 C6.076428,58.6375081 8.2499254,58.6375081 8.2499254,61.2373209 C8.2499254,63.3397249 6.60276444,63.623118 4.9916405,63.623118 L4.9916405,63.623118 Z M0.245296808,70.5076575 L2.9039455,70.5076575 L2.9039455,65.661783 L4.948249,65.661783 C9.03023695,65.661783 10.9316182,64.2497206 10.9316182,61.2174638 C10.9316182,57.1403788 8.01409137,56.5784957 4.861466,56.5784957 L0.245296808,56.5784957 L0.245296808,70.5076575 Z M3.14909522,70.7528072 L0.000147089831,70.7528072 L0.000147089831,56.3333459 L4.861466,56.3333459 C8.14156922,56.3333459 11.1767679,56.9248922 11.1767679,61.2174638 C11.1767679,64.3730309 9.13932858,65.9069327 4.948249,65.9069327 L3.14909522,65.9069327 L3.14909522,70.7528072 Z" id="Fill-33"></path>
                <path d="M18.0389498,65.7422166 L16.1821858,65.9550066 C14.5357603,66.147204 13.8959195,66.6382388 13.8959195,67.4499296 C13.8959195,68.2192094 14.49433,68.860521 15.5607313,68.860521 C16.8855203,68.860521 18.0389498,68.0694229 18.0389498,66.3825477 L18.0389498,65.7422166 Z M11.4846269,63.3517617 C11.655006,61.3658039 13.192585,59.8703906 16.2025332,59.8703906 C19.2965678,59.8703906 20.7282422,61.1091321 20.6850958,63.9065355 C20.6642581,65.0594747 20.6211117,66.1910858 20.6211117,67.1731555 C20.6211117,68.3047666 20.6850958,69.4577058 20.8365983,70.6302569 L18.3164592,70.6302569 L18.2524752,69.4991361 C17.5689977,70.460123 16.5648645,70.8871738 14.9412379,70.8871738 C12.5297001,70.8871738 11.1198441,69.2441803 11.1198441,67.471993 C11.1198441,66.5112513 11.504484,65.7422166 12.1016687,65.271284 C12.9996522,64.5679495 14.3023778,64.269112 16.0549531,64.0766694 L17.9730045,63.8624086 L17.9730045,63.5005676 C17.9730045,62.2620712 17.2480968,61.8561033 16.0738296,61.8561033 C14.8985819,61.8561033 14.0888524,62.3476285 14.0037854,63.4368287 L11.4846269,63.3517617 Z" id="Fill-34"></path>
                <path d="M17.9163749,65.879623 L16.1961593,66.0767234 C14.2658504,66.3022612 14.0184944,66.929109 14.0184944,67.4500521 C14.0184944,68.0911187 14.4953106,68.7380688 15.5607313,68.7380688 C16.6994517,68.7380688 17.9163749,68.1193109 17.9163749,66.3826703 L17.9163749,65.879623 Z M15.5607313,68.9832185 C14.5083035,68.9832185 13.7733447,68.3526934 13.7733447,67.4500521 C13.7733447,66.5253474 14.5117356,66.0267129 16.1679671,65.8332897 L18.1615246,65.6048102 L18.1615246,66.3826703 C18.1615246,67.962415 17.140476,68.9832185 15.5607313,68.9832185 L15.5607313,68.9832185 Z M16.0738296,61.733651 C17.4530419,61.733651 18.0955793,62.2950439 18.0955793,63.5006902 L18.0955793,63.9721131 L16.0686815,64.1986314 C14.0873815,64.4158341 12.9601831,64.754631 12.1771749,65.3677504 C11.5745968,65.8430957 11.242419,66.5903121 11.242419,67.4718705 C11.242419,69.1079997 12.51303,70.7644763 14.9412379,70.7644763 C16.5261308,70.7644763 17.4863823,70.3648823 18.1524541,69.4281652 L18.3549477,69.1433012 L18.4324151,70.5075594 L20.6975985,70.5075594 C20.5654628,69.4362552 20.4985369,68.3154306 20.4985369,67.173033 C20.4985369,66.5510881 20.5156974,65.8764361 20.5338384,65.162315 C20.5443799,64.7502183 20.5549213,64.3285608 20.562521,63.9042066 C20.5823781,62.617906 20.2884436,61.6843759 19.6638021,61.0501736 C18.9634093,60.3387491 17.8310628,59.993088 16.2025332,59.993088 C13.561045,59.993088 11.8587254,61.201431 11.6197044,63.2337221 L13.893468,63.310454 C14.0241328,62.2923472 14.7936578,61.733651 16.0738296,61.733651 L16.0738296,61.733651 Z M14.9412379,71.009626 C12.3519666,71.009626 10.9972693,69.2300842 10.9972693,67.4718705 C10.9972693,66.5138254 11.3625423,65.6979671 12.0259175,65.1748176 C12.8481496,64.5310544 14.011385,64.1777937 16.041715,63.9547075 L17.8504296,63.7527041 L17.8504296,63.5006902 C17.8504296,62.4337986 17.3191902,61.9788007 16.0738296,61.9788007 C15.2376239,61.9788007 14.2207429,62.2332661 14.12587,63.4465121 L14.1165543,63.5634485 L11.3515106,63.4698013 L11.3625423,63.3410977 C11.5554752,61.0911136 13.3649252,59.7479383 16.2025332,59.7479383 C17.900195,59.7479383 19.0896615,60.1176241 19.8385938,60.8783236 C20.5115298,61.5615559 20.8285084,62.5526962 20.8076707,63.9083742 C20.800071,64.3337089 20.7892844,64.7558567 20.778743,65.1686889 C20.7608471,65.8810939 20.7436866,66.5542751 20.7436866,67.173033 C20.7436866,68.3541643 20.8157606,69.5120064 20.9581926,70.6144447 L20.9760885,70.7527091 L18.2007486,70.7527091 L18.1482865,69.8304559 C17.4461777,70.6436175 16.4408187,71.009626 14.9412379,71.009626 L14.9412379,71.009626 Z" id="Fill-35"></path>
                <path d="M25.3197003,61.3657793 C25.9377227,60.4052828 27.112235,59.934105 28.4147155,59.934105 C29.7395045,59.934105 30.7198583,60.3194804 31.3611699,61.1510282 C31.8522048,61.7935656 32.1081411,62.711161 32.1081411,64.1190558 L32.1081411,70.6302323 L29.3739863,70.6302323 L29.3739863,64.7162405 C29.3739863,63.8207086 29.291616,63.2014604 28.9910624,62.7746548 C28.713553,62.3917309 28.2445815,62.1340786 27.5169772,62.1340786 C25.725423,62.1340786 25.3197003,63.6079187 25.3197003,65.2947939 L25.3197003,70.6302323 L22.5867712,70.6302323 L22.5867712,60.1687133 L25.3197003,60.1687133 L25.3197003,61.3657793 Z" id="Fill-36"></path>
                <path d="M29.4964631,70.5076575 L31.9857133,70.5076575 L31.9857133,64.1190558 C31.9857133,62.7893638 31.7562532,61.8698072 31.2635023,61.2253086 C30.657247,60.4391134 29.7254329,60.0566799 28.4146174,60.0566799 C27.0756096,60.0566799 25.9851837,60.558011 25.4228102,61.4319698 L25.1970273,61.782779 L25.1970273,60.2912881 L22.709248,60.2912881 L22.709248,70.5076575 L25.1970273,70.5076575 L25.1970273,65.2947939 C25.1970273,62.0115037 26.9432288,62.0115037 27.5171243,62.0115037 C28.2285488,62.0115037 28.757827,62.2441508 29.09025,62.7025808 C29.427576,63.1818485 29.4964631,63.854049 29.4964631,64.7162405 L29.4964631,70.5076575 Z M32.2308631,70.7528072 L29.2513134,70.7528072 L29.2513134,64.7162405 C29.2513134,63.7510861 29.1468796,63.2090601 28.8909433,62.8450127 C28.6080405,62.4552247 28.1456882,62.2566534 27.5171243,62.2566534 C26.1016298,62.2566534 25.4421771,63.222053 25.4421771,65.2947939 L25.4421771,70.7528072 L22.4640983,70.7528072 L22.4640983,60.0461384 L25.4421771,60.0461384 L25.4421771,60.9963387 C26.0901078,60.2388261 27.1506254,59.8115301 28.4146174,59.8115301 C29.8063323,59.8115301 30.8018853,60.2250977 31.4581511,61.0760124 C31.9854682,61.7658637 32.2308631,62.7327342 32.2308631,64.1190558 L32.2308631,70.7528072 Z" id="Fill-37"></path>
                <path d="M36.1463943,64.3333167 L41.2028524,64.3333167 C41.1410747,62.6045209 39.8582062,61.9205532 38.6655529,61.9205532 C37.5104074,61.9205532 36.2295001,62.5603939 36.1463943,64.3333167 M33.4333224,65.4006986 C33.4333224,62.1985529 35.502386,59.934105 38.7278209,59.934105 C42.1412856,59.934105 44.1066508,62.4113429 43.9372524,66.2334721 L36.1463943,66.2334721 C36.2076818,67.7700706 37.2549614,68.7967576 38.7481683,68.7967576 C40.1146328,68.7967576 40.9042601,68.1125447 41.2028524,67.2577077 L43.7671185,67.5999367 C43.2753481,69.0509779 41.7600777,70.8869041 38.7922953,70.8869041 C35.2449788,70.8869041 33.4333224,68.4540383 33.4333224,65.4006986" id="Fill-38"></path>
                <path d="M36.2772308,64.2107418 L41.0733398,64.2107418 C40.9549325,62.6138366 39.7142298,62.043128 38.6654793,62.043128 C37.5873108,62.043128 36.4103471,62.6157978 36.2772308,64.2107418 L36.2772308,64.2107418 Z M41.3297664,64.4558915 L36.0178624,64.4558915 L36.0239911,64.3276782 C36.1115095,62.4603728 37.5017536,61.7979783 38.6654793,61.7979783 C39.8507782,61.7979783 41.2584279,62.4608631 41.3253537,64.328904 L41.3297664,64.4558915 Z M38.7279925,60.0566799 C35.634203,60.0566799 33.5558237,62.2041914 33.5558237,65.4006986 C33.5558237,68.6592286 35.611159,70.7643292 38.7922217,70.7643292 C41.4898492,70.7643292 43.0311055,69.2081188 43.6005883,67.7014287 L41.2836783,67.3920497 C40.9005093,68.3640683 39.9824236,68.9193325 38.7483399,68.9193325 C37.1825687,68.9193325 36.0879752,67.8418994 36.0239911,66.2383751 L36.018843,66.1108973 L43.819507,66.1108973 C43.8844717,64.1447966 43.3779923,62.5412722 42.3515505,61.4684971 C41.4680309,60.5447729 40.2150707,60.0566799 38.7279925,60.0566799 L38.7279925,60.0566799 Z M38.7922217,71.009479 C35.4623531,71.009479 33.310674,68.8080345 33.310674,65.4006986 C33.310674,62.0575919 35.4876035,59.8115301 38.7279925,59.8115301 C40.2834674,59.8115301 41.5979602,60.3258542 42.5287937,61.2990986 C43.6228969,62.4427221 44.1524203,64.1509253 44.0597537,66.2388654 L44.0546056,66.356047 L36.2764953,66.356047 C36.3860772,67.7480071 37.3654504,68.6741827 38.7483399,68.6741827 C39.911085,68.6741827 40.7637157,68.1431885 41.0870682,67.217258 L41.1199183,67.1228753 L43.9310501,67.4981995 L43.8832459,67.6394058 C43.3309236,69.2686708 41.7036198,71.009479 38.7922217,71.009479 L38.7922217,71.009479 Z" id="Fill-39"></path>
                <polygon id="Fill-40" points="45.3904264 70.6303304 48.1209039 70.6303304 48.1209039 56.4560189 45.3904264 56.4560189"></polygon>
                <path d="M45.5130012,70.5077555 L47.9983291,70.5077555 L47.9983291,56.5785937 L45.5130012,56.5785937 L45.5130012,70.5077555 Z M45.2678515,70.7529053 L48.2434788,70.7529053 L48.2434788,56.333444 L45.2678515,56.333444 L45.2678515,70.7529053 Z" id="Fill-41"></path>
                <path d="M56.4491792,63.4779158 C56.2557561,62.5823839 55.359979,61.8993967 54.0148425,61.8993967 C53.011935,61.8993967 52.2414294,62.2622183 52.2414294,62.8603836 C52.2414294,63.4369758 52.9045594,63.7995522 53.799601,63.9919947 L55.039078,64.2692591 C57.2809722,64.7600488 59.0536498,65.2949655 59.0536498,67.4074206 C59.0536498,69.6493148 56.854902,70.8868305 54.3558457,70.8868305 C51.644735,70.8868305 49.7242321,69.4578528 49.4678055,67.3856023 L52.049232,67.0009624 C52.1803871,68.0261785 53.011935,68.9028339 54.4847945,68.9028339 C55.6803897,68.9028339 56.4048071,68.5400123 56.4048071,67.7481787 C56.4048071,66.9595321 55.5945873,66.7663541 54.5902089,66.5535641 L53.2033969,66.2557072 C51.1323721,65.8065929 49.7242321,64.9951474 49.7242321,63.0523359 C49.7242321,61.1310975 51.7082288,59.9342766 54.1849764,59.9342766 C56.2775744,59.9342766 58.5204491,60.938655 58.9251913,63.1378931 L56.4491792,63.4779158 Z" id="Fill-42"></path>
                <path d="M49.6060454,67.4890309 C49.9159147,69.4531705 51.8069996,70.7642312 54.3558212,70.7642312 C56.559472,70.7642312 58.9310504,69.7137646 58.9310504,67.4073961 C58.9310504,65.4020714 57.3069335,64.8914245 55.0128225,64.3888676 L53.7728552,64.1116033 C52.6912546,63.8789562 52.11883,63.4462669 52.11883,62.8603591 C52.11883,62.2124284 52.8807554,61.7767974 54.014818,61.7767974 C55.2976864,61.7767974 56.2750984,62.386975 56.5418213,63.341588 L58.7790576,63.0344154 C58.322834,60.978835 56.1603683,60.0570721 54.1849519,60.0570721 C51.630737,60.0570721 49.8467825,61.2887043 49.8467825,63.0523113 C49.8467825,64.6994723 50.8582702,65.6217255 53.2293583,66.1358045 L54.6159251,66.4336614 C55.5555839,66.632723 56.5273574,66.8388939 56.5273574,67.7481542 C56.5273574,68.3308751 56.1731161,69.0256294 54.48477,69.0256294 C53.1352208,69.0256294 52.1529059,68.2899351 51.9464898,67.1401829 L49.6060454,67.4890309 Z M54.3558212,71.0093809 C51.6265694,71.0093809 49.6131548,69.5593203 49.3461867,67.400777 L49.3314778,67.2821246 L52.1548671,66.8612025 L52.1708018,66.9854934 C52.2767065,67.813364 52.9462103,68.7804797 54.48477,68.7804797 C55.3047958,68.7804797 56.2822077,68.6012752 56.2822077,67.7481542 C56.2822077,67.0852694 55.6332964,66.8999362 54.5649339,66.6734178 L53.1776317,66.3755609 C51.5125748,66.0144554 49.6016327,65.3103854 49.6016327,63.0523113 C49.6016327,61.1443111 51.4863438,59.8119224 54.1849519,59.8119224 C56.3018197,59.8119224 58.6255939,60.8334612 59.0457805,63.1158051 L59.0690697,63.2420572 L56.3533011,63.61493 L56.3292765,63.5038771 C56.1348727,62.6036874 55.2263479,62.0219471 54.014818,62.0219471 C53.0430445,62.0219471 52.3639798,62.3666276 52.3639798,62.8603591 C52.3639798,63.4673498 53.279614,63.7549104 53.8253172,63.872092 L55.0657748,64.1496015 C57.394452,64.6595129 59.1762001,65.2233572 59.1762001,67.4073961 C59.1762001,69.8824276 56.6773891,71.0093809 54.3558212,71.0093809 L54.3558212,71.0093809 Z" id="Fill-43"></path>
                <path d="M63.3245011,62.7032181 L63.3245011,62.6426662 C63.3245011,61.0283553 64.4720469,59.9036084 66.0549786,59.9036084 C67.2486126,59.9036084 68.3128075,60.4512728 68.4420014,61.779494 L67.2336585,61.779494 C67.1287344,61.1492141 66.7151668,60.8643501 66.0706682,60.8643501 C65.1415508,60.8643501 64.5919251,61.5627817 64.5919251,62.65713 L64.5919251,62.7171917 C64.5919251,63.7527041 65.035401,64.4957529 66.0824354,64.4957529 C66.9865476,64.4957529 67.3523109,63.9779967 67.3773162,63.3626709 L66.1675024,63.3626709 L66.1675024,62.4779256 L68.5758532,62.4779256 L68.5758532,63.0471632 C68.5758532,64.4803085 67.6616899,65.4329603 66.0549786,65.4329603 C64.3009324,65.4329603 63.3245011,64.2925238 63.3245011,62.7032181" id="Fill-44"></path>
                <path d="M66.0549051,60.0262077 C64.5195324,60.0262077 63.4470024,61.1021699 63.4470024,62.6426907 L63.4470024,62.7032427 C63.4470024,64.3111797 64.4462326,65.3104099 66.0549051,65.3104099 C67.5566923,65.3104099 68.4532048,64.4643982 68.4532048,63.0471877 L68.4532048,62.6005249 L66.2900037,62.6005249 L66.2900037,63.2401205 L67.5049657,63.2401205 L67.4998175,63.3675984 C67.4679481,64.1508517 66.9381795,64.6183523 66.0823619,64.6183523 C65.0573909,64.6183523 64.4695219,63.9255592 64.4695219,62.7172162 L64.4695219,62.6569094 C64.4695219,61.475778 65.0831316,60.7417998 66.0705947,60.7417998 C66.7614266,60.7417998 67.1963222,61.0577978 67.3343415,61.6569437 L68.3026829,61.6569437 C68.1418646,60.6329533 67.3115425,60.0262077 66.0549051,60.0262077 M66.0549051,65.5555596 C64.3216966,65.5555596 63.2018527,64.4359609 63.2018527,62.7032427 L63.2018527,62.6426907 C63.2018527,60.984498 64.4018605,59.781058 66.0549051,59.781058 C67.5052108,59.781058 68.4431536,60.5236165 68.5637673,61.7677513 L68.5770054,61.9020934 L67.1298866,61.9020934 L67.1127261,61.7996208 C67.0217756,61.2526918 66.6807723,60.9869495 66.0705947,60.9869495 C65.2216412,60.9869495 64.7146716,61.6113458 64.7146716,62.6569094 L64.7146716,62.7172162 C64.7146716,63.4727676 64.9517314,64.3732025 66.0823619,64.3732025 C66.9626945,64.3732025 67.1938707,63.8640266 67.2438812,63.4852703 L66.044854,63.4852703 L66.044854,62.3553752 L68.6983545,62.3553752 L68.6983545,63.0471877 C68.6983545,64.5943276 67.6853959,65.5555596 66.0549051,65.5555596" id="Fill-45"></path>
                <path d="M71.6557426,62.4544647 C72.2610173,62.4544647 72.571622,62.1999993 72.571622,61.6802819 L72.571622,61.65258 C72.571622,61.1036898 72.2379732,60.9178663 71.6557426,60.9178663 L70.9712846,60.9178663 L70.9712846,62.4544647 L71.6557426,62.4544647 Z M69.7649029,59.9870328 L71.6839349,59.9870328 C72.9508686,59.9870328 73.7569209,60.5040536 73.7569209,61.6145818 L73.7569209,61.6452255 C73.7569209,62.4544647 73.2818207,62.8820058 72.6532568,63.0697905 L74.0685062,65.3506635 L72.7797541,65.3506635 L71.4971308,63.280129 L70.9712846,63.280129 L70.9712846,65.3506635 L69.7649029,65.3506635 L69.7649029,59.9870328 Z" id="Fill-46"></path>
                <path d="M71.093884,62.3318899 L71.6557672,62.3318899 C72.3667013,62.3318899 72.4490716,61.9599977 72.4490716,61.6802819 L72.4490716,61.65258 C72.4490716,61.212046 72.2267208,61.0404412 71.6557672,61.0404412 L71.093884,61.0404412 L71.093884,62.3318899 Z M71.6557672,62.5770396 L70.8487343,62.5770396 L70.8487343,60.7952914 L71.6557672,60.7952914 C71.9126841,60.7952914 72.6942214,60.7952914 72.6942214,61.65258 L72.6942214,61.6802819 C72.6942214,62.0894368 72.5140363,62.5770396 71.6557672,62.5770396 L71.6557672,62.5770396 Z M72.8479302,65.2280886 L73.8481411,65.2280886 L72.4645161,62.9982068 L72.6182249,62.9523638 C73.2923867,62.7508507 73.6343705,62.3112973 73.6343705,61.6452255 L73.6343705,61.6145818 C73.6343705,60.3706921 72.5738528,60.1096077 71.6839594,60.1096077 L69.8875022,60.1096077 L69.8875022,65.2280886 L70.8487343,65.2280886 L70.8487343,63.1575541 L71.5653069,63.1575541 L72.8479302,65.2280886 Z M74.2886751,65.4732384 L72.711627,65.4732384 L71.4287585,63.4027038 L71.093884,63.4027038 L71.093884,65.4732384 L69.6423525,65.4732384 L69.6423525,59.864458 L71.6839594,59.864458 C73.099699,59.864458 73.8795202,60.4859125 73.8795202,61.6145818 L73.8795202,61.6452255 C73.8795202,62.3696429 73.5206211,62.8824961 72.8391048,63.1367164 L74.2886751,65.4732384 Z" id="Fill-47"></path>
                <path d="M78.9432102,62.688264 L78.9432102,62.627712 C78.9432102,61.5848451 78.3864752,60.8712143 77.4509839,60.8712143 C76.5186795,60.8712143 75.9585124,61.5544466 75.9585124,62.6348214 L75.9585124,62.6943928 C75.9585124,63.7911926 76.5878118,64.4653543 77.4634865,64.4653543 C78.371276,64.4653543 78.9432102,63.7674131 78.9432102,62.688264 M74.6883917,62.7034633 L74.6883917,62.6426662 C74.6883917,61.0450255 75.8594719,59.9124338 77.4509839,59.9124338 C79.0638239,59.9124338 80.2106343,61.0001631 80.2106343,62.6130031 L80.2106343,62.671839 C80.2106343,64.2704603 79.1157956,65.4329603 77.4424037,65.4329603 C75.7621475,65.4329603 74.6883917,64.2704603 74.6883917,62.7034633" id="Fill-48"></path>
                <path d="M77.4510084,60.9937401 C76.5929844,60.9937401 76.0811118,61.6071047 76.0811118,62.6347723 L76.0811118,62.6943437 C76.0811118,63.6955352 76.6236281,64.3427304 77.4635111,64.3427304 C78.3006974,64.3427304 78.8206599,63.7087733 78.8206599,62.688215 L78.8206599,62.6279082 C78.8206599,61.6198525 78.2957944,60.9937401 77.4510084,60.9937401 M77.4635111,64.5878802 C76.4900215,64.5878802 75.8359621,63.8269354 75.8359621,62.6943437 L75.8359621,62.6347723 C75.8359621,61.4712918 76.45472,60.7485904 77.4510084,60.7485904 C78.4318525,60.7485904 79.0658096,61.4862459 79.0658096,62.6279082 L79.0658096,62.688215 C79.0658096,63.8421347 78.4367554,64.5878802 77.4635111,64.5878802 M77.4510084,60.0349596 C75.9212742,60.0349596 74.810746,61.1315143 74.810746,62.6428623 L74.810746,62.7034143 C74.810746,64.2625665 75.8683218,65.3103364 77.4424282,65.3103364 C79.0248696,65.3103364 80.0880839,64.2500638 80.0880839,62.67179 L80.0880839,62.612954 C80.0880839,61.0952321 79.0037867,60.0349596 77.4510084,60.0349596 M77.4424282,65.5554861 C75.7486888,65.5554861 74.5655962,64.3826898 74.5655962,62.7034143 L74.5655962,62.6428623 C74.5655962,60.9895726 75.7790874,59.7898099 77.4510084,59.7898099 C79.1479348,59.7898099 80.3332337,60.9508389 80.3332337,62.612954 L80.3332337,62.67179 C80.3332337,64.3696969 79.1445027,65.5554861 77.4424282,65.5554861" id="Fill-49"></path>
                <path d="M81.3173872,63.2573055 L81.3173872,59.9867632 L82.540194,59.9867632 L82.540194,63.18278 C82.540194,64.0748799 82.8032396,64.4651582 83.5377082,64.4651582 C84.2572226,64.4651582 84.5729755,64.1204777 84.5729755,63.1379176 L84.5729755,59.9867632 L85.7965177,59.9867632 L85.7965177,63.2124431 C85.7965177,64.6737806 84.9779628,65.4330093 83.5305989,65.4330093 C82.1202525,65.4330093 81.3173872,64.6835866 81.3173872,63.2573055" id="Fill-50"></path>
                <path d="M81.4399621,60.1092645 L81.4399621,63.257232 C81.4399621,64.6004073 82.1629086,65.3103609 83.5305989,65.3103609 C84.9328552,65.3103609 85.6739428,64.5849629 85.6739428,63.2126147 L85.6739428,60.1092645 L84.6955503,60.1092645 L84.6955503,63.1378441 C84.6955503,64.1542348 84.3491538,64.5876595 83.5377082,64.5876595 C82.7524937,64.5876595 82.4176191,64.1674729 82.4176191,63.1827065 L82.4176191,60.1092645 L81.4399621,60.1092645 Z M83.5305989,65.5555106 C82.024399,65.5555106 81.1948123,64.7394072 81.1948123,63.257232 L81.1948123,59.8641147 L82.6627689,59.8641147 L82.6627689,63.1827065 C82.6627689,64.0390144 82.8917387,64.3425098 83.5377082,64.3425098 C84.1157712,64.3425098 84.4504006,64.1454094 84.4504006,63.1378441 L84.4504006,59.8641147 L85.9190926,59.8641147 L85.9190926,63.2126147 C85.9190926,64.7234725 85.0708745,65.5555106 83.5305989,65.5555106 L83.5305989,65.5555106 Z" id="Fill-51"></path>
                <path d="M89.0082242,62.5525001 C89.6024671,62.5525001 89.9169942,62.2666555 89.9169942,61.7341903 L89.9169942,61.7040369 C89.9169942,61.1340638 89.586042,60.9090164 89.0082242,60.9090164 L88.3921629,60.9090164 L88.3921629,62.5525001 L89.0082242,62.5525001 Z M87.1857812,59.9867632 L89.0396033,59.9867632 C90.3430644,59.9867632 91.0880744,60.5636004 91.0880744,61.6971727 L91.0880744,61.7275713 C91.0880744,62.860163 90.2991826,63.4002278 89.0773564,63.4002278 L88.3921629,63.4002278 L88.3921629,65.350639 L87.1857812,65.350639 L87.1857812,59.9867632 Z" id="Fill-52"></path>
                <path d="M88.5147133,62.4299252 L89.0081996,62.4299252 C89.5372327,62.4299252 89.7943948,62.2024263 89.7943948,61.7341903 L89.7943948,61.7040369 C89.7943948,61.2328592 89.5592962,61.0315913 89.0081996,61.0315913 L88.5147133,61.0315913 L88.5147133,62.4299252 Z M89.0081996,62.675075 L88.2695635,62.675075 L88.2695635,60.7864415 L89.0081996,60.7864415 C89.6926577,60.7864415 90.0395445,61.0953302 90.0395445,61.7040369 L90.0395445,61.7341903 C90.0395445,62.3321105 89.66373,62.675075 89.0081996,62.675075 L89.0081996,62.675075 Z M87.3083315,65.2280641 L88.2695635,65.2280641 L88.2695635,63.277653 L89.0773319,63.277653 C89.7826276,63.277653 90.9657201,63.076385 90.9657201,61.7275713 L90.9657201,61.6971727 C90.9657201,60.3848863 89.9184405,60.109338 89.039824,60.109338 L87.3083315,60.109338 L87.3083315,65.2280641 Z M88.5147133,65.4732138 L87.0631818,65.4732138 L87.0631818,59.8641883 L89.039824,59.8641883 C90.439874,59.8641883 91.2108699,60.5150608 91.2108699,61.6971727 L91.2108699,61.7275713 C91.2108699,62.8684981 90.433255,63.5228027 89.0773319,63.5228027 L88.5147133,63.5228027 L88.5147133,65.4732138 Z" id="Fill-53"></path>
                <path d="M92.9513348,16.2992938 L104.115943,27.4636571 L115.280552,16.2992938 L104.115943,5.13468536 L92.9513348,16.2992938 Z M104.115943,28.0328948 L92.3820972,16.2992938 L104.115943,4.56544771 L115.850035,16.2992938 L104.115943,28.0328948 Z" id="Fill-54"></path>
                <path d="M93.1246802,16.2992938 L104.115968,27.2903363 L115.107255,16.2992938 L104.115968,5.30800621 L93.1246802,16.2992938 Z M104.115968,27.636978 L92.7780385,16.2992938 L104.115968,4.96136451 L115.453897,16.2992938 L104.115968,27.636978 Z M92.5554425,16.2992938 L104.115968,27.8595739 L115.676738,16.2992938 L104.115968,4.73876856 L92.5554425,16.2992938 Z M104.115968,28.2062156 L92.2088008,16.2992938 L104.115968,4.39212686 L116.02338,16.2992938 L104.115968,28.2062156 Z" id="Fill-55"></path>
                <path d="M116.68347,59.595161 L154.994487,74.7152602 L170.115077,36.4039977 L131.803569,21.2838985 L116.68347,59.595161 Z M155.221251,75.2376742 L155.033956,75.163639 L116.161056,59.8219245 L116.235091,59.6346301 L131.576806,20.7614845 L131.7641,20.8355197 L170.637246,36.1772342 L170.563456,36.3645286 L155.221251,75.2376742 Z" id="Fill-56"></path>
                <path d="M116.842425,59.5260778 L154.925453,74.5564522 L169.956073,36.4729338 L131.872799,21.4428046 L116.842425,59.5260778 Z M155.063472,74.8741662 L154.949478,74.8293038 L116.524466,59.6640971 L116.569328,59.5501025 L131.734535,21.1248454 L170.274032,36.3349145 L155.063472,74.8741662 Z M116.320256,59.7528413 L155.152217,75.0786211 L170.478242,36.2461703 L131.645791,20.9203905 L116.320256,59.7528413 Z M155.289991,75.3968254 L154.988947,75.2776826 L116.002052,59.8908606 L116.121195,59.5895716 L131.508017,20.6024313 L131.809061,20.7213289 L170.796446,36.1083961 L170.677303,36.40944 L155.289991,75.3968254 Z" id="Fill-57"></path>
                <path d="M108.350512,32.0726925 L139.897849,32.0726925 L139.897849,0.525355846 L108.350512,0.525355846 L108.350512,32.0726925 Z M107.947731,32.4752283 L140.300385,32.4752283 L140.300385,0.122574859 L107.947731,0.122574859 L107.947731,32.4752283 Z" id="Fill-58"></path>
                <path d="M108.473087,31.9501176 L139.775274,31.9501176 L139.775274,0.647930705 L108.473087,0.647930705 L108.473087,31.9501176 Z M108.227938,32.1952673 L140.020424,32.1952673 L140.020424,0.402780987 L108.227938,0.402780987 L108.227938,32.1952673 Z M108.070306,32.3526534 L140.17781,32.3526534 L140.17781,0.245149718 L108.070306,0.245149718 L108.070306,32.3526534 Z M107.825157,32.5978032 L140.42296,32.5978032 L140.42296,0 L107.825157,0 L107.825157,32.5978032 Z" id="Fill-59"></path>
            </g>
        </g>
    </g>
</svg>